<svg width="25" height="25" viewBox="0 0 25 25" fill="none" xmlns="http://www.w3.org/2000/svg">
<g clip-path="url(#clip0_1_30)">
<path d="M9.375 0.434374C9.52713 0.619899 9.62032 0.846674 9.6426 1.08556C9.66487 1.32445 9.61521 1.56455 9.5 1.775C8.59615 3.43336 8.12436 5.29258 8.12813 7.18125C8.12813 13.4641 13.25 18.5516 19.5625 18.5516C20.3875 18.5505 21.1859 18.4672 21.9578 18.3016C22.1939 18.251 22.4397 18.2709 22.6647 18.3587C22.8896 18.4464 23.0839 18.5982 23.2234 18.7953C23.3711 19.0004 23.4464 19.2487 23.4376 19.5012C23.4289 19.7538 23.3365 19.9963 23.175 20.1906C21.9494 21.6959 20.4034 22.9088 18.6497 23.7408C16.8959 24.5728 14.9786 25.003 13.0375 25C5.83437 25 0 19.1969 0 12.0469C0 6.66562 3.30313 2.05 8.00625 0.0937489C8.24045 -0.0057823 8.50067 -0.026378 8.74761 0.0350741C8.99455 0.0965263 9.21477 0.236687 9.375 0.434374Z" fill="black"/>
</g>
<defs>
<clipPath id="clip0_1_30">
<rect width="25" height="25" fill="white"/>
</clipPath>
</defs>
</svg>
